<?xml version="1.0" encoding="UTF-8" standalone="no"?>
<!-- Created with Inkscape (http://www.inkscape.org/) -->

<svg
   width="553.38843"
   height="553.38843"
   viewBox="0 0 553.38843 553.38843"
   version="1.1"
   id="svg1"
   inkscape:version="1.3.2 (091e20ef0f, 2023-11-25)"
   sodipodi:docname="spiral.svg"
   inkscape:export-filename="spiral.png"
   inkscape:export-xdpi="96"
   inkscape:export-ydpi="96"
   xmlns:inkscape="http://www.inkscape.org/namespaces/inkscape"
   xmlns:sodipodi="http://sodipodi.sourceforge.net/DTD/sodipodi-0.dtd"
   xmlns="http://www.w3.org/2000/svg"
   xmlns:svg="http://www.w3.org/2000/svg">
  <sodipodi:namedview
     id="namedview1"
     pagecolor="#ffffff"
     bordercolor="#000000"
     borderopacity="0.25"
     inkscape:showpageshadow="2"
     inkscape:pageopacity="0.0"
     inkscape:pagecheckerboard="0"
     inkscape:deskcolor="#d1d1d1"
     inkscape:document-units="px"
     inkscape:zoom="0.71299934"
     inkscape:cx="734.22228"
     inkscape:cy="498.59794"
     inkscape:window-width="2560"
     inkscape:window-height="1314"
     inkscape:window-x="0"
     inkscape:window-y="86"
     inkscape:window-maximized="1"
     inkscape:current-layer="layer1" />
  <defs
     id="defs1" />
  <g
     inkscape:label="Layer 1"
     inkscape:groupmode="layer"
     id="layer1"
     transform="translate(-122.22411,-78.716606)">
    <g
       id="g6"
       transform="translate(4.2075764,-22.440415)">
      <rect
         style="fill:#000000;stroke-width:1.36765"
         id="rect2"
         width="553.38843"
         height="553.38843"
         x="118.01653"
         y="101.15702" />
      <path
         sodipodi:type="spiral"
         style="fill:#ff0000;fill-rule:evenodd;stroke:#000000"
         id="path6"
         sodipodi:cx="508.76035"
         sodipodi:cy="329.2562"
         sodipodi:expansion="1"
         sodipodi:revolution="3"
         sodipodi:radius="269.90698"
         sodipodi:argument="-17.508589"
         sodipodi:t0="0"
         d="m 508.76035,329.2562 c 3.0829,13.17686 -16.24116,10.65669 -21.90083,5.12398 -15.33733,-14.99329 -4.05172,-39.55452 11.65285,-48.92563 28.0918,-16.76271 63.03736,0.92454 75.95044,28.42969 18.95047,40.36491 -5.8569,86.90791 -45.20652,102.97524 C 476.80944,438.27472 418.33113,406.1004 399.25624,354.87613 375.25243,290.41561 414.89956,219.86159 478.01643,197.85126 554.45941,171.19381 637.16142,218.368 662.0661,293.38829 691.4154,381.79711 636.68282,476.68941 549.75224,504.46277 449.38744,536.52822 342.27786,474.21752 311.65295,375.37207 276.85498,263.0576 346.75699,143.71242 457.52048,110.24797 581.78037,72.705929 713.37416,150.20852 749.66939,272.89234 789.96397,409.09464 704.85405,552.94662 570.24818,592.06606"
         transform="translate(-136.47982,31.462914)" />
    </g>
  </g>
</svg>
